<svg width="1919" height="921" viewBox="0 0 1919 921" fill="none" xmlns="http://www.w3.org/2000/svg">
<mask id="mask0_2_4449" style="mask-type:alpha" maskUnits="userSpaceOnUse" x="-1" y="0" width="1920" height="921">
<path opacity="0.9" d="M-1 0H1919V921H-1V0Z" fill="url(#paint0_radial_2_4449)"/>
</mask>
<g mask="url(#mask0_2_4449)">
<path opacity="0.4" d="M1640.88 -240.227C1637.04 -238.037 1630.32 -238.037 1626.48 -240.227C1626.16 -240.227 1626.16 -240.539 1626.16 -240.539L1404.08 -115.439V40.3102L1694 -122.945V-120.443L1349.68 73.7745V246.1L1164.08 350.871L1197.04 369.323L1377.84 267.367L1377.2 266.429L1549.04 169.476V148.209L1583.92 128.506V67.8322L1694 5.90772V8.40973L1586.16 69.0832V127.255L1630.64 102.235C1627.76 100.045 1628.08 96.918 1631.6 94.7287C1635.44 92.5395 1642.16 92.5395 1646 94.7287C1649.84 96.918 1649.84 100.671 1646 102.86C1642.48 104.737 1636.72 105.049 1632.88 103.486L1551.28 149.46V170.727L1380.72 267.054H1460.08L1694 135.074V137.576L1464.56 267.054H1694V269.243H1379.12L1199.28 370.887L1233.2 389.965L1363.76 316.469H1364.08L1694 316.156V318.345H1460.08L1531.12 358.377H1694V360.566H1530.48L1455.28 318.345H1364.4L1235.44 391.216L1265.52 408.104L1379.76 343.678H1380.08H1425.84L1519.28 396.22H1694V398.409H1518.64L1425.2 345.867H1380.4L1297.52 392.78H1339.12L1379.44 369.949H1410.8L1480.56 409.355C1484.4 407.792 1489.84 408.104 1493.36 409.981C1497.2 412.17 1497.2 415.923 1493.36 418.112C1489.52 420.302 1482.8 420.302 1478.96 418.112C1475.44 415.923 1475.12 412.796 1478 410.606L1409.84 372.138H1379.76L1339.44 394.969H1293.36L1267.44 409.668L1309.68 433.437H1371.76L1448.88 476.909C1452.72 475.346 1458.48 475.346 1462 477.535C1465.84 479.724 1465.84 483.477 1462 485.666C1458.16 487.856 1451.44 487.856 1447.6 485.666C1444.08 483.79 1443.76 480.35 1446.64 478.16L1371.44 435.626H1313.84L1333.68 446.885L1302.96 464.399L1386.48 511.312H1473.84L1566.32 459.083C1563.44 456.893 1563.76 453.766 1567.28 451.577C1571.12 449.387 1577.84 449.387 1581.68 451.577C1585.52 453.766 1585.52 457.519 1581.68 459.708C1578.16 461.585 1572.4 461.897 1568.56 460.334L1520.88 487.23H1693.68V489.732L1693.04 489.419H1516.72L1474.48 513.188H1474.16H1389.68L1424.24 532.579H1622.64L1673.84 561.352H1693.36V563.541H1677.68L1694 572.924V575.426L1622.64 535.081H1424.24L1300.72 465.338L1243.12 497.864L1386.8 578.866H1541.36L1694 664.872V667.374L1541.04 581.055H1390.96L1580.72 688.328V774.022L1694 838.136V840.638L1578.16 775.273V689.579L1240.56 499.115L1190.96 526.949L1393.84 641.416V813.741L1508.4 878.48H1503.92L1391.6 815.305V642.98L1188.72 528.513L1158 545.714L1308.4 630.47V832.506L1380.72 873.164V878.48H1378.48V874.415L1306.16 833.757V631.721L1155.76 546.965L1114.48 570.109L1230 635.161V878.48H1227.76V774.96L1170.16 807.486V878.48H1167.92V806.235L1227.44 772.145V712.41L1151.6 755.257C1154.16 757.446 1153.84 760.574 1150.32 762.45C1146.48 764.639 1139.76 764.639 1135.92 762.45C1132.08 760.261 1132.08 756.508 1135.92 754.319C1139.44 752.129 1145.2 752.129 1149.36 754.006L1227.44 709.908V636.099L1112.56 571.047L1075.76 591.689L1131.76 623.276V669.876L1117.68 677.695V701.464L1016.88 758.384V798.416L934.96 844.703C937.84 846.893 937.52 850.02 934 852.209C930.16 854.399 923.44 854.399 919.6 852.209C915.76 850.02 915.76 846.267 919.6 844.078C923.12 842.201 928.88 841.889 932.72 843.452L1014.64 797.165V757.133L1115.44 700.213V678.946L946.16 774.647C948.72 776.837 948.4 779.964 944.88 781.841C941.04 784.03 934.32 784.03 930.48 781.841C926.64 779.651 926.64 775.898 930.48 773.709C934 771.52 939.76 771.52 943.92 773.396L1079.6 697.085H1011.44L933.36 741.183C936.24 743.372 935.92 746.5 932.4 748.689C928.56 750.878 921.84 750.878 918 748.689C914.16 746.5 914.16 742.747 918 740.558C921.52 738.681 927.28 738.368 931.12 739.932L1010.48 695.209H1010.8H1083.12L1129.2 669.251V625.466L1073.2 593.878L1062 600.133L1047.6 592.001L813.04 724.295H812.72H748.72C748.4 725.233 747.44 726.484 745.84 727.109C742 729.299 735.28 729.299 731.44 727.109C727.6 724.92 727.6 721.167 731.44 718.978C735.28 716.789 742 716.789 745.84 718.978C747.44 719.916 748.4 720.854 748.72 721.793H812.08L1045.36 590.125L1009.52 570.109L814.64 680.197C817.52 682.386 817.2 685.514 813.68 687.703C809.84 689.892 803.12 689.892 799.28 687.703C795.44 685.514 795.44 681.761 799.28 679.571C802.8 677.695 808.56 677.382 812.4 678.946L1007.92 568.858L970.8 547.904L695.28 703.34V833.444L774.64 878.48H770.16L722.8 851.897L675.44 878.48H670.96L720.56 850.646L693.04 835.008V732.739L646.32 759.01V822.811L551.6 876.291C552.56 876.917 552.88 877.542 553.2 878.48H533.36C533.68 877.542 534.64 876.291 536.24 875.666C539.76 873.789 545.52 873.476 549.36 875.04L644.08 821.56V757.759L693.04 730.237V702.402L968.56 546.965L927.92 524.135L393.52 825.626V878.793H391.28V824.375L925.68 522.884L892.72 504.431L617.52 659.868H617.2H416.88L328.56 709.595H329.2V762.45L229.04 819.058C231.92 821.247 231.6 824.375 228.08 826.564C224.24 828.753 217.52 828.753 213.68 826.564C209.84 824.375 209.84 820.622 213.68 818.432C217.2 816.556 222.96 816.243 226.8 817.807L326.96 761.199V710.534L174.96 796.227H174.64H-161.68L-226 759.948V757.446L-161.04 794.038H174L415.92 657.366H416.24H616.56L890.48 502.868L861.68 486.605L601.2 633.597H600.88H370.8L258.8 696.773C261.68 698.962 261.36 702.089 257.84 704.279C254 706.468 247.28 706.468 243.44 704.279C239.6 702.089 239.6 698.336 243.44 696.147C246.96 694.271 252.72 693.958 256.56 695.522L370.16 631.408H370.48H600.56L638.96 609.515H331.76L88.88 472.531C85.04 474.095 79.2799 474.095 75.7599 471.905C71.9199 469.716 71.9199 465.963 75.7599 463.774C79.5999 461.585 86.3199 461.585 90.1599 463.774C93.6799 465.65 94 469.091 91.12 471.28L332.4 607.326H643.12L740.4 552.595L702.32 531.015H634.48L571.12 495.362C567.28 496.925 561.52 496.925 558 494.736C554.16 492.547 554.16 488.794 558 486.605C561.84 484.415 568.56 484.415 572.4 486.605C575.92 488.481 576.24 491.921 573.36 494.111L635.12 528.826H698.16L550.64 445.634H414L337.84 488.481C340.72 490.67 340.4 493.798 336.88 495.987C333.04 498.176 326.32 498.176 322.48 495.987C318.64 493.798 318.64 490.045 322.48 487.856C326 485.979 331.76 485.666 335.6 487.23L413.04 443.445H413.36H550.96L742.32 551.344L823.6 505.37H778.8L742.64 485.041C738.8 486.605 733.04 486.605 729.52 484.415C725.68 482.226 725.68 478.473 729.52 476.284C733.36 474.095 740.08 474.095 743.92 476.284C747.44 478.16 747.76 481.288 745.2 483.477L779.76 502.868H828.08L860.08 484.728L791.92 446.26L813.36 434.063L695.92 367.76H656.56L609.84 394.031C612.72 396.22 612.4 399.347 608.88 401.537C605.04 403.726 598.32 403.726 594.48 401.537C590.64 399.347 590.64 395.594 594.48 393.405C598 391.529 603.76 391.216 607.6 392.78L655.92 365.57H656.24H695.6L781.04 413.734V369.636L701.04 324.6C697.2 326.164 691.44 326.164 687.92 323.975C684.08 321.785 684.08 318.032 687.92 315.843C691.76 313.654 698.48 313.654 702.32 315.843C705.84 317.72 706.16 321.16 703.28 323.349L783.28 368.385V415.61L814.96 433.437L925.68 370.887L874.16 341.801H807.6L702.32 282.379H622.32L510.96 345.242C513.84 347.431 513.52 350.558 510 352.748C506.16 354.937 499.44 354.937 495.6 352.748C491.76 350.558 491.76 346.805 495.6 344.616C499.12 342.74 504.88 342.427 508.72 343.991L621.36 280.502H621.68H702.96L808.24 339.925H870.32L561.52 165.723H343.28L205.68 88.161L205.04 87.8482V-31.3095C202.16 -30.9968 199.28 -31.6223 197.04 -32.8733C193.2 -35.0625 193.2 -38.8155 197.04 -41.0048C200.88 -43.194 207.6 -43.194 211.44 -41.0048C215.28 -38.8155 215.28 -35.0625 211.44 -32.8733C210.16 -32.2478 208.88 -31.935 207.6 -31.6223V86.5972L343.92 163.534H562.16L928.24 369.949L969.84 346.493L600.24 137.888L599.6 137.576V13.101L473.2 -58.206C469.36 -56.6423 463.6 -56.6423 460.08 -58.8315C456.24 -61.0208 456.24 -64.7738 460.08 -66.963C463.92 -69.1523 470.64 -69.1523 474.48 -66.963C478 -65.0865 478.32 -61.959 475.44 -59.457L601.2 11.5372L601.84 11.85V136.324L971.76 345.242L1015.28 320.534L798.64 198.249L798 197.936V90.9757L1170.48 -119.505C1167.6 -121.694 1167.92 -124.822 1171.44 -127.011C1175.28 -129.2 1182 -129.2 1185.84 -127.011C1189.68 -124.822 1189.68 -121.069 1185.84 -118.88C1182.32 -117.003 1176.56 -116.69 1172.72 -118.254L899.12 36.2445H981.36L1128.88 -46.947C1126 -49.1363 1126.32 -52.2638 1129.84 -54.453C1133.68 -56.6423 1140.4 -56.6423 1144.24 -54.453C1148.08 -52.2638 1148.08 -48.5108 1144.24 -46.3215C1140.72 -44.445 1134.96 -44.1323 1131.12 -45.696L982 38.4337H981.68H894.96L800.24 91.914V196.372L974.64 294.889V241.721L867.44 181.361L866.8 181.048V127.255C864.56 127.255 862.32 126.629 860.72 125.691C856.88 123.502 856.88 119.749 860.72 117.559C864.56 115.37 871.28 115.37 875.12 117.559C878.96 119.749 878.96 123.502 875.12 125.691C873.52 126.629 871.28 127.255 869.04 127.255V179.797L976.24 240.157L977.2 240.47V296.14L1017.84 318.971L1062.64 293.638L1089.84 308.963V193.245L995.44 139.765C991.6 141.329 985.84 141.329 982.32 139.139C978.48 136.95 978.48 133.197 982.32 131.008C986.16 128.818 992.88 128.818 996.72 131.008C1000.24 132.884 1000.56 136.324 997.68 138.514L1091.76 191.681L1092.4 191.994V239.219L1162.8 199.187V154.464L1008.56 67.5195C1004.72 69.0832 998.96 69.0832 995.44 66.894C991.6 64.7047 991.6 60.9517 995.44 58.7625C999.28 56.5732 1006 56.5732 1009.84 58.7625C1013.36 60.639 1013.68 63.7665 1010.8 66.2685L1164.4 152.9L1165.04 153.213V200.751L1092.08 242.034V310.526L1130.8 332.419L1163.44 313.967V272.058L1213.04 244.223C1210.16 242.034 1210.48 238.907 1214 236.717C1217.84 234.528 1224.56 234.528 1228.4 236.717C1232.24 238.907 1232.24 242.659 1228.4 244.849C1224.88 246.725 1219.12 247.038 1215.28 245.474L1165.68 273.309V312.716L1273.84 251.729V159.781L1110.96 67.8322L1110.32 67.5195V32.8042L1202.48 -19.1123C1199.6 -21.3015 1199.92 -24.429 1203.44 -26.6183C1207.28 -28.8075 1214 -28.8075 1217.84 -26.6183C1221.68 -24.429 1221.68 -20.676 1217.84 -18.4868C1214.32 -16.6103 1208.56 -16.2975 1204.72 -17.8613L1112.56 34.0552V65.9557L1275.44 157.904L1276.08 158.217V252.667L1133.04 333.357L1161.84 349.62L1347.44 244.849V72.5235L1401.52 41.874V-116.69L1624.24 -242.103C1622.64 -244.292 1623.6 -246.794 1626.48 -248.358C1630.32 -250.547 1637.04 -250.547 1640.88 -248.358C1644.72 -246.169 1644.72 -242.416 1640.88 -240.227ZM1062.64 296.14L796.08 446.573L1062.64 597.005L1329.2 446.573L1062.64 296.14Z" fill="white" fill-opacity="0.2"/>
<path opacity="0.1" d="M1694 243.422L1648.24 269.067V355.386L1227.12 593.076L1253.04 607.775L1470 485.177H1470.32H1628.08L1694 447.96V449.837L1629.04 486.428H1628.72H1470.96L1254.96 608.401L1277.68 621.224L1483.12 505.193H1483.44H1664.56L1694 488.93V490.807L1665.2 507.07H1664.88H1483.76L1453.36 524.271H1694V526.148H1450.48L1374 569.307L1404.08 586.196H1457.52L1507.44 614.343C1510.64 613.092 1514.8 613.092 1517.68 614.656C1520.88 616.532 1520.88 619.347 1517.68 620.911C1514.48 622.787 1509.36 622.787 1506.48 620.911C1503.6 619.347 1503.28 616.845 1505.52 614.969L1456.88 587.447H1406.96L1523.44 653.124H1630.96L1690.8 619.973C1688.56 618.096 1688.88 615.594 1691.76 614.03C1692.4 613.718 1693.36 613.405 1694 613.092V621.224C1693.68 621.224 1693.04 620.911 1692.72 620.911L1631.6 655.313H1631.28H1522.8L1371.76 570.245L1307.76 606.524H1343.28L1371.76 622.475C1374.96 621.224 1379.44 621.224 1382.32 622.787C1385.52 624.664 1385.52 627.479 1382.32 629.042C1379.12 630.919 1374 630.919 1371.12 629.042C1368.24 627.479 1367.92 624.977 1370.16 623.413L1342.96 608.088H1304.88L1279.6 622.162L1332.08 651.56L1333.36 652.186L1316.4 661.568L1409.2 714.423H1440.24L1477.04 693.469C1474.8 691.592 1475.12 689.09 1478 687.527C1481.2 685.65 1486.32 685.65 1489.2 687.527C1492.4 689.403 1492.4 692.218 1489.2 693.782C1486.32 695.345 1481.84 695.658 1478.96 694.094L1440.88 715.674H1440.56H1408.56L1341.36 677.831V712.547L1404.4 748.2C1407.6 746.949 1411.76 746.949 1414.64 748.513C1417.84 750.389 1417.84 753.204 1414.64 754.768C1411.44 756.644 1406.32 756.644 1403.44 754.768C1400.56 753.204 1400.24 750.702 1402.48 748.826L1339.44 713.172V676.268L1314.48 662.194L1227.12 711.608L1267.76 734.439H1320.24L1403.44 781.352H1466.48L1554.16 731.937C1551.92 730.061 1552.24 727.559 1555.12 725.995C1558.32 724.118 1563.44 724.118 1566.32 725.995C1569.52 727.871 1569.52 730.686 1566.32 732.25C1563.44 733.814 1558.96 734.126 1556.08 732.563L1467.44 782.603H1467.12H1403.12L1319.92 735.69H1270.96L1514.48 872.987H1686.32L1694 878.93V880.806L1686 876.115H1513.84L1225.52 713.485L1192.88 731.937L1484.08 896.131L1484.4 896.444V994.647L1583.92 1050.94C1587.12 1049.69 1591.28 1049.69 1594.16 1051.25C1597.36 1053.13 1597.36 1055.95 1594.16 1057.51C1590.96 1059.39 1585.84 1059.39 1582.96 1057.51C1580.08 1055.95 1579.76 1053.44 1582 1051.57L1482.48 995.273V897.069L1190.96 732.563L1156.72 751.953L1327.6 848.28L1327.92 848.593V932.723L1035.44 1097.85H1022.32C1025.2 1096.29 1029.68 1095.98 1032.56 1097.54L1248.24 975.882H1183.28L1066.8 1041.56C1069.04 1043.44 1068.72 1045.94 1065.84 1047.5C1062.64 1049.38 1057.52 1049.38 1054.64 1047.5C1051.44 1045.63 1051.44 1042.81 1054.64 1041.25C1057.52 1039.68 1062 1039.37 1064.88 1040.93L1182.32 974.631H1182.64H1251.12L1326 932.41V850.157L1188.4 772.595V814.503L1273.2 862.354V904.575C1274.8 904.575 1276.72 905.201 1278 905.826C1281.2 907.703 1281.2 910.517 1278 912.081C1274.8 913.958 1269.68 913.958 1266.8 912.081C1263.6 910.205 1263.6 907.39 1266.8 905.826C1268.08 905.201 1269.68 904.575 1271.6 904.575V863.292L1186.8 815.441V771.656L1154.8 753.517L1119.92 773.22L1119.6 773.533L1098.16 761.336V852.659L1172.72 894.567C1175.92 893.316 1180.08 893.316 1182.96 894.88C1186.16 896.756 1186.16 899.571 1182.96 901.135C1179.76 903.011 1174.64 903.011 1171.76 901.135C1168.88 899.571 1168.56 897.069 1170.8 895.193L1096.24 853.284V816.067L1040.56 847.655V882.995L1162.16 951.488C1165.36 950.237 1169.52 950.237 1172.4 951.8C1175.6 953.677 1175.6 956.492 1172.4 958.055C1169.2 959.932 1164.08 959.932 1161.2 958.055C1158.32 956.492 1158 953.99 1160.24 952.113L1039.28 883.934L1038.96 883.621V846.404L1096.56 813.878V759.772L1066.16 742.571L1040.24 757.27V790.421L1001.2 812.627C1003.44 814.503 1003.12 817.005 1000.24 818.569C997.04 820.445 991.92 820.445 989.04 818.569C985.84 816.692 985.84 813.878 989.04 812.314C991.92 810.75 996.4 810.437 999.28 812.001L1038.32 789.796V758.834L953.2 806.997V879.555L1081.2 951.488L1081.52 951.8V979.01L1008.88 1019.98C1011.12 1021.86 1010.8 1024.36 1007.92 1025.92C1004.72 1027.8 999.6 1027.8 996.72 1025.92C993.52 1024.05 993.52 1021.23 996.72 1019.67C999.6 1018.1 1004.08 1017.79 1006.96 1019.35L1079.6 978.384V953.051L951.28 880.806L950.96 880.493V806.059L1063.92 741.945L1041.2 729.122L894.96 811.688V947.422L852.4 971.504V1096.29L849.2 1098.17H845.68L850.8 1095.35V972.442L628.08 1098.17H624.56L893.68 946.171V810.437L1039.92 727.871L1014 713.172L871.6 793.549L871.92 794.174L736.24 870.798V887.374L708.72 903.011V950.862L506.48 1065.02C508.72 1066.89 508.4 1069.39 505.52 1070.96C502.32 1072.83 497.2 1072.83 494.32 1070.96C491.12 1069.08 491.12 1066.27 494.32 1064.7C497.2 1063.14 501.68 1062.83 504.56 1064.39L706.8 950.237V904.575L671.92 924.278C674.16 926.155 673.84 928.657 670.96 930.221C667.76 932.097 662.64 932.097 659.76 930.221C656.56 928.344 656.56 925.529 659.76 923.966C662.64 922.402 667.12 922.089 670 923.653L734.32 887.374V870.173L868.72 794.174H806.32L537.52 945.858V985.577L430.96 1045.63C433.2 1047.5 432.88 1050 430 1051.57C426.8 1053.44 421.68 1053.44 418.8 1051.57C415.6 1049.69 415.6 1046.88 418.8 1045.31C421.68 1043.75 426.16 1043.44 429.04 1045L535.6 984.639V944.92L802.8 794.174H621.04L402.48 917.398H402.16H146.48L-3.2801 832.955C-6.4801 834.206 -10.6399 834.206 -13.5199 832.643C-16.7199 830.766 -16.7199 827.951 -13.5199 826.388C-10.3199 824.511 -5.19995 824.511 -2.31995 826.388C0.560053 827.951 0.880014 830.453 -1.35999 832.33L147.12 916.147H401.84L620.4 792.923H620.72H870.32L1012.08 712.859L985.2 697.847L882.48 755.706H882.16H592.88L390 870.173C392.24 872.049 391.92 874.551 389.04 876.115C385.84 877.991 380.72 877.991 377.84 876.115C374.64 874.238 374.64 871.424 377.84 869.86C380.72 868.296 385.2 867.983 388.08 869.547L591.92 754.455H592.24H806.32L750.32 722.867H598.96C598.64 723.806 598 724.431 596.72 725.057C593.52 726.933 588.4 726.933 585.52 725.057C582.32 723.18 582.32 720.365 585.52 718.802C588.72 716.925 593.84 716.925 596.72 718.802C598 719.427 598.64 720.365 598.96 720.991H750.96L810.16 754.455H881.84L983.6 697.222L959.92 683.774L870 734.439H869.68H833.2L759.6 692.843H537.84L398.96 614.343C395.76 615.594 391.6 615.281 388.72 613.718C385.52 611.841 385.52 609.026 388.72 607.463C391.92 605.586 397.04 605.586 399.92 607.463C402.8 609.026 403.12 611.528 400.56 613.405L538.16 690.967H759.92L833.52 732.563H868.72L934 695.658H901.36L869.68 713.485H869.36H844.72L789.68 682.523C786.48 683.774 782.32 683.461 779.44 681.897C776.24 680.021 776.24 677.206 779.44 675.642C782.64 673.766 787.76 673.766 790.64 675.642C793.52 677.206 793.84 679.708 791.28 681.584L845.04 711.921H868.72L900.4 694.094H900.72H936.88L957.36 682.523L924.08 663.758H875.12L814.32 629.355C811.12 630.606 806.96 630.606 804.08 629.042C800.88 627.166 800.88 624.351 804.08 622.787C807.28 620.911 812.4 620.911 815.28 622.787C818.16 624.351 818.48 626.853 816.24 628.73L875.76 662.194H921.2L906.8 654.062L905.52 653.437L929.84 639.676L864.24 602.459H795.12L722.16 643.742C724.4 645.618 724.08 648.12 721.2 649.684C718 651.56 712.88 651.56 710 649.684C706.8 647.807 706.8 644.993 710 643.429C712.88 641.865 717.36 641.552 720.24 643.116L757.68 621.849H621.36L582.32 599.644H504.24C503.92 600.582 503.28 601.208 502 601.833C498.8 603.71 493.68 603.71 490.8 601.833C487.6 599.957 487.6 597.142 490.8 595.578C494 593.702 499.12 593.702 502 595.578C503.28 596.204 503.92 597.142 504.24 597.767H582.96L622 619.973H760.88L794.16 601.208H794.48H861.04L833.84 585.883H677.36L637.04 563.052H517.36L460.08 530.839C456.88 532.09 452.72 532.09 449.84 530.526C446.64 528.65 446.64 525.835 449.84 524.271C453.04 522.395 458.16 522.395 461.04 524.271C463.92 525.835 464.24 528.337 462 530.213L518 561.801H634.16L499.76 486.116H401.2L359.6 462.659C356.4 463.91 352.24 463.91 349.36 462.347C346.16 460.47 346.16 457.655 349.36 456.092C352.56 454.215 357.68 454.215 360.56 456.092C363.44 457.655 363.76 460.157 361.52 462.034L401.84 484.865H500.4L678.32 585.257H834.8L932.08 640.301L977.52 614.656L864.24 550.855H742.32L604.08 472.667C600.88 473.918 596.72 473.918 593.84 472.355C590.64 470.478 590.64 467.663 593.84 466.1C597.04 464.223 602.16 464.223 605.04 466.1C607.92 467.663 608.24 470.165 606 472.042L742.96 549.291H861.36L712.24 465.161L711.92 464.849V394.793L488.88 268.754C485.68 270.005 481.52 270.005 478.64 268.442C475.44 266.565 475.44 263.75 478.64 262.187C481.84 260.31 486.96 260.31 489.84 262.187C492.72 263.75 493.04 266.252 490.8 268.129L713.52 393.854L713.84 394.167V461.721L979.76 611.841L1018.8 589.949L859.44 499.877L859.12 499.564V363.83L717.04 283.766C713.84 285.017 709.68 285.017 706.8 283.454C703.6 281.577 703.6 278.762 706.8 277.199C710 275.322 715.12 275.322 718 277.199C720.88 278.762 721.2 281.264 718.96 283.141L860.4 362.892L860.72 363.205V498.938L1020.72 589.323L1044.72 575.875L926.32 508.946V349.757L868.4 316.605V256.557L818.16 228.097C814.96 229.348 810.8 229.348 807.92 227.784C804.72 225.908 804.72 223.093 807.92 221.529C811.12 219.653 816.24 219.653 819.12 221.529C822 223.093 822.32 225.595 820.08 227.471L870.32 255.932V315.98L927.28 348.193V507.383L1045.68 574.311L1078.32 555.859L987.76 504.568V238.418H989.68V394.167L1035.12 368.522V281.264C1033.52 281.264 1031.6 280.639 1030.32 280.013C1027.12 278.137 1027.12 275.322 1030.32 273.758C1033.52 271.882 1038.64 271.882 1041.52 273.758C1044.72 275.635 1044.72 278.45 1041.52 280.013C1040.24 280.639 1038.64 281.264 1036.72 281.264V369.773L989.36 396.356V443.269L1049.2 409.492C1046.96 407.615 1047.28 405.426 1050.16 403.862C1053.36 401.986 1058.48 401.986 1061.36 403.862C1064.56 405.739 1064.56 408.554 1061.36 410.117C1058.48 411.681 1054 411.994 1050.8 410.43L989.36 445.145V503.317L1079.92 554.295L1108.72 538.032L1064.56 513.325V476.733L1075.76 470.478V451.713L1155.12 406.99V375.402L1219.76 338.81C1217.52 336.934 1217.84 334.432 1220.72 332.868C1223.92 330.992 1229.04 330.992 1231.92 332.868C1235.12 334.745 1235.12 337.559 1231.92 339.123C1229.04 340.687 1224.56 341 1221.68 339.436L1157.04 376.028V407.615L1077.68 452.339V468.914L1211.12 393.542C1208.88 391.665 1209.2 389.476 1212.08 387.912C1215.28 386.036 1220.4 386.036 1223.28 387.912C1226.48 389.789 1226.48 392.603 1223.28 394.167C1220.4 395.731 1215.92 396.044 1212.72 394.48L1105.84 454.841H1159.6L1221.04 420.125C1218.8 418.249 1219.12 415.747 1222 414.183C1225.2 412.307 1230.32 412.307 1233.2 414.183C1236.4 416.06 1236.4 418.874 1233.2 420.438C1230.32 422.002 1225.84 422.315 1222.96 420.751L1159.92 456.092H1102.96L1066.48 476.733V511.448L1110.64 536.156L1118.96 531.464L1119.28 531.152L1130.48 537.407L1315.44 432.948H1315.76H1366.32C1366.64 432.01 1367.28 431.384 1368.56 430.759C1371.76 428.882 1376.88 428.882 1379.76 430.759C1382.96 432.635 1382.96 435.45 1379.76 437.014C1376.56 438.89 1371.44 438.89 1368.56 437.014C1367.28 436.388 1366.64 435.45 1366.32 434.825H1316.4L1132.4 538.658L1160.56 554.608L1314.16 467.976C1311.92 466.1 1312.24 463.598 1315.12 462.034C1318.32 460.157 1323.44 460.157 1326.32 462.034C1329.52 463.91 1329.52 466.725 1326.32 468.289C1323.44 469.853 1318.96 470.165 1316.08 468.602L1162.48 555.233L1191.6 571.809L1408.88 449.211V346.629L1306.48 288.77H1212.08L1137.52 246.549C1134.32 247.8 1130.16 247.8 1127.28 246.236C1124.08 244.36 1124.08 241.545 1127.28 239.981C1130.48 238.105 1135.6 238.105 1138.48 239.981C1141.36 241.545 1141.68 244.047 1139.44 245.924L1212.72 287.207H1303.6L1179.12 216.838L1178.8 216.525V125.202C1177.2 125.202 1175.28 124.577 1174 123.951C1170.8 122.075 1170.8 119.26 1174 117.696C1177.2 115.82 1182.32 115.82 1185.2 117.696C1188.4 119.573 1188.4 122.387 1185.2 123.951C1183.92 124.577 1182.32 125.202 1180.4 125.202V215.587L1387.44 332.555L1514.8 260.623V179.933L1605.04 129.581C1602.8 127.704 1603.12 125.202 1606 123.638C1609.2 121.762 1614.32 121.762 1617.2 123.638C1620.4 125.515 1620.4 128.33 1617.2 129.893C1614.32 131.457 1609.84 131.77 1606.96 130.206L1516.4 181.184V261.874L1389.04 333.806L1410.16 345.691L1410.48 346.004V426.693L1447.28 406.052V355.699L1521.84 313.478C1519.6 311.601 1519.92 309.099 1522.8 307.535C1526 305.659 1531.12 305.659 1534 307.535C1537.2 309.412 1537.2 312.227 1534 313.79C1531.12 315.354 1526.64 315.667 1523.76 314.103L1449.2 357.263V407.615L1410.8 429.195V451.088L1193.52 573.686L1225.52 591.825L1646.64 354.135V267.816L1694 241.232V243.422ZM1119.6 534.279L909.36 652.811L1119.6 771.344L1329.84 652.811L1119.6 534.279Z" fill="white" fill-opacity="0.2"/>
</g>
<defs>
<radialGradient id="paint0_radial_2_4449" cx="0" cy="0" r="1" gradientUnits="userSpaceOnUse" gradientTransform="translate(1155.27 495.805) rotate(180) scale(1017.22 731.921)">
<stop stop-color="#5761D7"/>
<stop offset="0.0311047" stop-color="#525BCE"/>
<stop offset="0.1763" stop-color="#3E41A6"/>
<stop offset="0.3263" stop-color="#2D2B85"/>
<stop offset="0.4803" stop-color="#201A6C"/>
<stop offset="0.6397" stop-color="#160E5A"/>
<stop offset="0.8079" stop-color="#11074F"/>
<stop offset="1" stop-color="#0F054C"/>
</radialGradient>
</defs>
</svg>
